# xmcd
# Copyright (C) 1995-1998 Ti Kan
#
# Track frame offsets:
#       182
#       22200
#       38197
#       61962
#       78357
#       99695
#       113860
#       144200
#       166340
#       191910
#
# Disc length: 2794 seconds
#
# Revision: 0
# Processed by: cddbd v1.5.2PL0 Copyright (c) Steve Scherf et al.
# Submitted via: CD-Transfer v1.0
#
DISCID=860ae80a
DTITLE=Lennox, Annie - 
DYEAR=95
DGENRE=
TTITLE0=No More ''i Love You's''
TTITLE1=Take Me To The River
TTITLE2=A Whiter Shade Of Pale
TTITLE3=Don't Let It Bring You Down
TTITLE4=Train In Vain
TTITLE5=I Can't Get Next To You
TTITLE6=Downtown Lights
TTITLE7=Thin Line Between Love And Hate
TTITLE8=Waiting In Vain
TTITLE9=Something So Right
EXTD=
EXTT0=
EXTT1=
EXTT2=
EXTT3=
EXTT4=
EXTT5=
EXTT6=
EXTT7=
EXTT8=
EXTT9=
PLAYORDER=
